<svg width="48" height="48" viewBox="0 0 48 48" fill="none" xmlns="http://www.w3.org/2000/svg">
<g clip-path="url(#clip0_172_153)">
<path d="M14.4 32.5124C14.4 28.7369 17.5543 25.6762 24 25.6762C30.4457 25.6762 33.6 28.7369 33.6 32.5124C33.6 33.1131 33.1618 33.6 32.6212 33.6H15.3788C14.8382 33.6 14.4 33.1131 14.4 32.5124Z" stroke="#242A30" stroke-width="2"/>
<path d="M27.6 18C27.6 19.9882 25.9882 21.6 24 21.6C22.0118 21.6 20.4 19.9882 20.4 18C20.4 16.0118 22.0118 14.4 24 14.4C25.9882 14.4 27.6 16.0118 27.6 18Z" stroke="#242A30" stroke-width="2"/>
</g>
<defs>
<clipPath id="clip0_172_153">
<rect x="4" y="4" width="40" height="40" rx="20" fill="white"/>
</clipPath>
</defs>
</svg>
